<mxfile host="app.diagrams.net" modified="2024-06-05T17:41:13.559Z" agent="Mozilla/5.0 (Windows NT 10.0; Win64; x64) AppleWebKit/537.36 (KHTML, like Gecko) Chrome/123.0.0.0 Safari/537.36 OPR/109.0.0.0" etag="-KDjCb4f3jkiuw3ZewCV" version="24.4.13" type="device">
  <diagram name="Страница — 1" id="9TiphyvTbJPAZ76motCi">
    <mxGraphModel dx="2906" dy="-616" grid="1" gridSize="5" guides="0" tooltips="1" connect="1" arrows="1" fold="1" page="1" pageScale="1" pageWidth="3300" pageHeight="2339" math="0" shadow="0">
      <root>
        <mxCell id="0" />
        <mxCell id="1" parent="0" />
        <mxCell id="xjaKLcEpLH_baJNtlWJC-59" value="&lt;font style=&quot;&quot;&gt;&lt;sub style=&quot;&quot;&gt;&lt;span style=&quot;font-size: 56px;&quot;&gt;Z&lt;sub&gt;t&lt;/sub&gt;&lt;/span&gt;&lt;/sub&gt;&lt;/font&gt;" style="text;html=1;align=center;verticalAlign=middle;whiteSpace=wrap;rounded=0;strokeWidth=5;" vertex="1" parent="1">
          <mxGeometry x="715" y="2640" width="240" height="120" as="geometry" />
        </mxCell>
        <mxCell id="xjaKLcEpLH_baJNtlWJC-60" value="" style="endArrow=classic;html=1;rounded=0;exitX=1;exitY=0.5;exitDx=0;exitDy=0;strokeWidth=5;entryX=0;entryY=0.5;entryDx=0;entryDy=0;" edge="1" parent="1" source="xjaKLcEpLH_baJNtlWJC-59" target="xjaKLcEpLH_baJNtlWJC-67">
          <mxGeometry width="50" height="50" relative="1" as="geometry">
            <mxPoint x="930" y="2040" as="sourcePoint" />
            <mxPoint x="1215" y="2700" as="targetPoint" />
          </mxGeometry>
        </mxCell>
        <mxCell id="xjaKLcEpLH_baJNtlWJC-61" value="&lt;font style=&quot;&quot;&gt;&lt;sub style=&quot;&quot;&gt;&lt;span style=&quot;font-size: 56px;&quot;&gt;H&lt;sub&gt;t&lt;/sub&gt;&lt;/span&gt;&lt;/sub&gt;&lt;/font&gt;" style="text;html=1;align=center;verticalAlign=middle;whiteSpace=wrap;rounded=0;strokeWidth=5;" vertex="1" parent="1">
          <mxGeometry x="1160" y="3020" width="240" height="120" as="geometry" />
        </mxCell>
        <mxCell id="xjaKLcEpLH_baJNtlWJC-63" value="" style="endArrow=classic;html=1;rounded=0;exitX=0.5;exitY=0;exitDx=0;exitDy=0;strokeWidth=5;entryX=0.5;entryY=1;entryDx=0;entryDy=0;" edge="1" parent="1" source="xjaKLcEpLH_baJNtlWJC-61" target="xjaKLcEpLH_baJNtlWJC-67">
          <mxGeometry width="50" height="50" relative="1" as="geometry">
            <mxPoint x="930" y="2040" as="sourcePoint" />
            <mxPoint x="1280" y="2765" as="targetPoint" />
          </mxGeometry>
        </mxCell>
        <mxCell id="xjaKLcEpLH_baJNtlWJC-64" value="&lt;font style=&quot;&quot;&gt;&lt;sub style=&quot;&quot;&gt;&lt;sub style=&quot;&quot;&gt;&lt;span style=&quot;font-size: 56px;&quot;&gt;Y&lt;sub&gt;t&lt;/sub&gt;&lt;/span&gt;&lt;/sub&gt;&lt;/sub&gt;&lt;/font&gt;" style="text;html=1;align=center;verticalAlign=middle;whiteSpace=wrap;rounded=0;strokeWidth=5;" vertex="1" parent="1">
          <mxGeometry x="1590" y="2640" width="240" height="120" as="geometry" />
        </mxCell>
        <mxCell id="xjaKLcEpLH_baJNtlWJC-66" value="" style="endArrow=classic;html=1;rounded=0;exitX=1;exitY=0.5;exitDx=0;exitDy=0;strokeWidth=5;entryX=0;entryY=0.5;entryDx=0;entryDy=0;" edge="1" parent="1" source="xjaKLcEpLH_baJNtlWJC-67" target="xjaKLcEpLH_baJNtlWJC-64">
          <mxGeometry width="50" height="50" relative="1" as="geometry">
            <mxPoint x="1345" y="2700" as="sourcePoint" />
            <mxPoint x="1285" y="2770" as="targetPoint" />
          </mxGeometry>
        </mxCell>
        <mxCell id="xjaKLcEpLH_baJNtlWJC-67" value="&lt;font style=&quot;font-size: 65px;&quot;&gt;sigm&lt;/font&gt;" style="rounded=0;whiteSpace=wrap;html=1;strokeWidth=5;" vertex="1" parent="1">
          <mxGeometry x="1194" y="2655" width="170" height="90" as="geometry" />
        </mxCell>
      </root>
    </mxGraphModel>
  </diagram>
</mxfile>
